<svg width="225" height="21" viewBox="0 0 225 21" fill="none" xmlns="http://www.w3.org/2000/svg">
<path d="M9.17911 5.242L5.49711 15H4.02711L0.345109 5.242H1.70311L4.76911 13.656L7.83511 5.242H9.17911ZM11.234 6.082C10.9914 6.082 10.786 5.998 10.618 5.83C10.45 5.662 10.366 5.45667 10.366 5.214C10.366 4.97133 10.45 4.766 10.618 4.598C10.786 4.43 10.9914 4.346 11.234 4.346C11.4674 4.346 11.6634 4.43 11.822 4.598C11.99 4.766 12.074 4.97133 12.074 5.214C12.074 5.45667 11.99 5.662 11.822 5.83C11.6634 5.998 11.4674 6.082 11.234 6.082ZM11.85 7.328V15H10.576V7.328H11.85ZM21.0214 10.87C21.0214 11.1127 21.0074 11.3693 20.9794 11.64H14.8474C14.894 12.396 15.1507 12.9887 15.6174 13.418C16.0934 13.838 16.6674 14.048 17.3394 14.048C17.89 14.048 18.3474 13.922 18.7114 13.67C19.0847 13.4087 19.346 13.0633 19.4954 12.634H20.8674C20.662 13.3713 20.2514 13.9733 19.6354 14.44C19.0194 14.8973 18.254 15.126 17.3394 15.126C16.6114 15.126 15.958 14.9627 15.3794 14.636C14.81 14.3093 14.362 13.8473 14.0354 13.25C13.7087 12.6433 13.5454 11.9433 13.5454 11.15C13.5454 10.3567 13.704 9.66133 14.0214 9.064C14.3387 8.46667 14.782 8.00933 15.3514 7.692C15.93 7.36533 16.5927 7.202 17.3394 7.202C18.0674 7.202 18.7114 7.36067 19.2714 7.678C19.8314 7.99533 20.2607 8.434 20.5594 8.994C20.8674 9.54467 21.0214 10.17 21.0214 10.87ZM19.7054 10.604C19.7054 10.1187 19.598 9.70333 19.3834 9.358C19.1687 9.00333 18.8747 8.73733 18.5014 8.56C18.1374 8.37333 17.7314 8.28 17.2834 8.28C16.6394 8.28 16.0887 8.48533 15.6314 8.896C15.1834 9.30667 14.9267 9.876 14.8614 10.604H19.7054ZM32.923 7.328L30.529 15H29.213L27.365 8.91L25.517 15H24.201L21.793 7.328H23.095L24.859 13.768L26.763 7.328H28.065L29.927 13.782L31.663 7.328H32.923ZM47.8178 5.312V15H46.5438V7.776L43.3238 15H42.4278L39.1938 7.762V15H37.9198V5.312H39.2918L42.8758 13.32L46.4598 5.312H47.8178ZM53.3244 15.126C52.6057 15.126 51.9524 14.9627 51.3644 14.636C50.7857 14.3093 50.3284 13.8473 49.9924 13.25C49.6657 12.6433 49.5024 11.9433 49.5024 11.15C49.5024 10.366 49.6704 9.67533 50.0064 9.078C50.3517 8.47133 50.8184 8.00933 51.4064 7.692C51.9944 7.36533 52.6524 7.202 53.3804 7.202C54.1084 7.202 54.7664 7.36533 55.3544 7.692C55.9424 8.00933 56.4044 8.46667 56.7404 9.064C57.0857 9.66133 57.2584 10.3567 57.2584 11.15C57.2584 11.9433 57.0811 12.6433 56.7264 13.25C56.3811 13.8473 55.9097 14.3093 55.3124 14.636C54.7151 14.9627 54.0524 15.126 53.3244 15.126ZM53.3244 14.006C53.7817 14.006 54.2111 13.8987 54.6124 13.684C55.0137 13.4693 55.3357 13.1473 55.5784 12.718C55.8304 12.2887 55.9564 11.766 55.9564 11.15C55.9564 10.534 55.8351 10.0113 55.5924 9.582C55.3497 9.15267 55.0324 8.83533 54.6404 8.63C54.2484 8.41533 53.8237 8.308 53.3664 8.308C52.8997 8.308 52.4704 8.41533 52.0784 8.63C51.6957 8.83533 51.3877 9.15267 51.1544 9.582C50.9211 10.0113 50.8044 10.534 50.8044 11.15C50.8044 11.7753 50.9164 12.3027 51.1404 12.732C51.3737 13.1613 51.6817 13.4833 52.0644 13.698C52.4471 13.9033 52.8671 14.006 53.3244 14.006ZM60.2075 8.574C60.4315 8.13533 60.7488 7.79467 61.1595 7.552C61.5795 7.30933 62.0881 7.188 62.6855 7.188V8.504H62.3495C60.9215 8.504 60.2075 9.27867 60.2075 10.828V15H58.9335V7.328H60.2075V8.574ZM71.1561 10.87C71.1561 11.1127 71.1421 11.3693 71.1141 11.64H64.9821C65.0288 12.396 65.2855 12.9887 65.7521 13.418C66.2281 13.838 66.8021 14.048 67.4741 14.048C68.0248 14.048 68.4821 13.922 68.8461 13.67C69.2195 13.4087 69.4808 13.0633 69.6301 12.634H71.0021C70.7968 13.3713 70.3861 13.9733 69.7701 14.44C69.1541 14.8973 68.3888 15.126 67.4741 15.126C66.7461 15.126 66.0928 14.9627 65.5141 14.636C64.9448 14.3093 64.4968 13.8473 64.1701 13.25C63.8435 12.6433 63.6801 11.9433 63.6801 11.15C63.6801 10.3567 63.8388 9.66133 64.1561 9.064C64.4735 8.46667 64.9168 8.00933 65.4861 7.692C66.0648 7.36533 66.7275 7.202 67.4741 7.202C68.2021 7.202 68.8461 7.36067 69.4061 7.678C69.9661 7.99533 70.3955 8.434 70.6941 8.994C71.0021 9.54467 71.1561 10.17 71.1561 10.87ZM69.8401 10.604C69.8401 10.1187 69.7328 9.70333 69.5181 9.358C69.3035 9.00333 69.0095 8.73733 68.6361 8.56C68.2721 8.37333 67.8661 8.28 67.4181 8.28C66.7741 8.28 66.2235 8.48533 65.7661 8.896C65.3181 9.30667 65.0615 9.876 64.9961 10.604H69.8401ZM79.6642 15.098C79.0202 15.098 78.4415 14.986 77.9282 14.762C77.4242 14.5287 77.0275 14.2113 76.7382 13.81C76.4489 13.3993 76.2995 12.928 76.2902 12.396H77.6482C77.6949 12.8533 77.8815 13.2407 78.2082 13.558C78.5442 13.866 79.0295 14.02 79.6642 14.02C80.2709 14.02 80.7469 13.8707 81.0922 13.572C81.4469 13.264 81.6242 12.872 81.6242 12.396C81.6242 12.0227 81.5215 11.7193 81.3162 11.486C81.1109 11.2527 80.8542 11.0753 80.5462 10.954C80.2382 10.8327 79.8229 10.702 79.3002 10.562C78.6562 10.394 78.1382 10.226 77.7462 10.058C77.3635 9.89 77.0322 9.62867 76.7522 9.274C76.4815 8.91 76.3462 8.42467 76.3462 7.818C76.3462 7.286 76.4815 6.81467 76.7522 6.404C77.0229 5.99333 77.4009 5.676 77.8862 5.452C78.3809 5.228 78.9455 5.116 79.5802 5.116C80.4949 5.116 81.2415 5.34467 81.8202 5.802C82.4082 6.25933 82.7395 6.866 82.8142 7.622H81.4142C81.3675 7.24867 81.1715 6.922 80.8262 6.642C80.4809 6.35267 80.0235 6.208 79.4542 6.208C78.9222 6.208 78.4882 6.348 78.1522 6.628C77.8162 6.89867 77.6482 7.28133 77.6482 7.776C77.6482 8.13067 77.7462 8.42 77.9422 8.644C78.1475 8.868 78.3949 9.04067 78.6842 9.162C78.9829 9.274 79.3982 9.40467 79.9302 9.554C80.5742 9.73133 81.0922 9.90867 81.4842 10.086C81.8762 10.254 82.2122 10.52 82.4922 10.884C82.7722 11.2387 82.9122 11.724 82.9122 12.34C82.9122 12.816 82.7862 13.264 82.5342 13.684C82.2822 14.104 81.9089 14.4447 81.4142 14.706C80.9195 14.9673 80.3362 15.098 79.6642 15.098ZM85.445 6.082C85.2023 6.082 84.997 5.998 84.829 5.83C84.661 5.662 84.577 5.45667 84.577 5.214C84.577 4.97133 84.661 4.766 84.829 4.598C84.997 4.43 85.2023 4.346 85.445 4.346C85.6783 4.346 85.8743 4.43 86.033 4.598C86.201 4.766 86.285 4.97133 86.285 5.214C86.285 5.45667 86.201 5.662 86.033 5.83C85.8743 5.998 85.6783 6.082 85.445 6.082ZM86.061 7.328V15H84.787V7.328H86.061ZM97.4583 7.188C98.0556 7.188 98.5876 7.314 99.0543 7.566C99.521 7.80867 99.8896 8.17733 100.16 8.672C100.431 9.16667 100.566 9.76867 100.566 10.478V15H99.3063V10.66C99.3063 9.89467 99.115 9.31133 98.7323 8.91C98.359 8.49933 97.8503 8.294 97.2063 8.294C96.5436 8.294 96.0163 8.50867 95.6243 8.938C95.2323 9.358 95.0363 9.96933 95.0363 10.772V15H93.7763V10.66C93.7763 9.89467 93.585 9.31133 93.2023 8.91C92.829 8.49933 92.3203 8.294 91.6763 8.294C91.0136 8.294 90.4863 8.50867 90.0943 8.938C89.7023 9.358 89.5063 9.96933 89.5063 10.772V15H88.2323V7.328H89.5063V8.434C89.7583 8.03267 90.0943 7.72467 90.5143 7.51C90.9436 7.29533 91.415 7.188 91.9283 7.188C92.5723 7.188 93.1416 7.33267 93.6363 7.622C94.131 7.91133 94.4996 8.336 94.7423 8.896C94.957 8.35467 95.3116 7.93467 95.8063 7.636C96.301 7.33733 96.8516 7.188 97.4583 7.188ZM103.314 6.082C103.071 6.082 102.866 5.998 102.698 5.83C102.53 5.662 102.446 5.45667 102.446 5.214C102.446 4.97133 102.53 4.766 102.698 4.598C102.866 4.43 103.071 4.346 103.314 4.346C103.547 4.346 103.743 4.43 103.902 4.598C104.07 4.766 104.154 4.97133 104.154 5.214C104.154 5.45667 104.07 5.662 103.902 5.83C103.743 5.998 103.547 6.082 103.314 6.082ZM103.93 7.328V15H102.656V7.328H103.93ZM107.375 4.64V15H106.101V4.64H107.375ZM109.071 11.136C109.071 10.352 109.229 9.666 109.547 9.078C109.864 8.48067 110.298 8.01867 110.849 7.692C111.409 7.36533 112.029 7.202 112.711 7.202C113.383 7.202 113.966 7.34667 114.461 7.636C114.955 7.92533 115.324 8.28933 115.567 8.728V7.328H116.855V15H115.567V13.572C115.315 14.02 114.937 14.3933 114.433 14.692C113.938 14.9813 113.359 15.126 112.697 15.126C112.015 15.126 111.399 14.958 110.849 14.622C110.298 14.286 109.864 13.8147 109.547 13.208C109.229 12.6013 109.071 11.9107 109.071 11.136ZM115.567 11.15C115.567 10.5713 115.45 10.0673 115.217 9.638C114.983 9.20867 114.666 8.882 114.265 8.658C113.873 8.42467 113.439 8.308 112.963 8.308C112.487 8.308 112.053 8.42 111.661 8.644C111.269 8.868 110.956 9.19467 110.723 9.624C110.489 10.0533 110.373 10.5573 110.373 11.136C110.373 11.724 110.489 12.2373 110.723 12.676C110.956 13.1053 111.269 13.4367 111.661 13.67C112.053 13.894 112.487 14.006 112.963 14.006C113.439 14.006 113.873 13.894 114.265 13.67C114.666 13.4367 114.983 13.1053 115.217 12.676C115.45 12.2373 115.567 11.7287 115.567 11.15ZM120.282 8.574C120.506 8.13533 120.823 7.79467 121.234 7.552C121.654 7.30933 122.162 7.188 122.76 7.188V8.504H122.424C120.996 8.504 120.282 9.27867 120.282 10.828V15H119.008V7.328H120.282V8.574ZM129.237 13.964H132.653V15H127.963V5.242H129.237V13.964ZM134.664 6.082C134.421 6.082 134.216 5.998 134.048 5.83C133.88 5.662 133.796 5.45667 133.796 5.214C133.796 4.97133 133.88 4.766 134.048 4.598C134.216 4.43 134.421 4.346 134.664 4.346C134.897 4.346 135.093 4.43 135.252 4.598C135.42 4.766 135.504 4.97133 135.504 5.214C135.504 5.45667 135.42 5.662 135.252 5.83C135.093 5.998 134.897 6.082 134.664 6.082ZM135.28 7.328V15H134.006V7.328H135.28ZM140.167 15.126C139.579 15.126 139.052 15.028 138.585 14.832C138.118 14.6267 137.75 14.3467 137.479 13.992C137.208 13.628 137.059 13.2127 137.031 12.746H138.347C138.384 13.1287 138.562 13.4413 138.879 13.684C139.206 13.9267 139.63 14.048 140.153 14.048C140.638 14.048 141.021 13.9407 141.301 13.726C141.581 13.5113 141.721 13.2407 141.721 12.914C141.721 12.578 141.572 12.3307 141.273 12.172C140.974 12.004 140.512 11.8407 139.887 11.682C139.318 11.5327 138.851 11.3833 138.487 11.234C138.132 11.0753 137.824 10.8467 137.563 10.548C137.311 10.24 137.185 9.83867 137.185 9.344C137.185 8.952 137.302 8.59267 137.535 8.266C137.768 7.93933 138.1 7.68267 138.529 7.496C138.958 7.3 139.448 7.202 139.999 7.202C140.848 7.202 141.534 7.41667 142.057 7.846C142.58 8.27533 142.86 8.86333 142.897 9.61H141.623C141.595 9.20867 141.432 8.88667 141.133 8.644C140.844 8.40133 140.452 8.28 139.957 8.28C139.5 8.28 139.136 8.378 138.865 8.574C138.594 8.77 138.459 9.02667 138.459 9.344C138.459 9.596 138.538 9.806 138.697 9.974C138.865 10.1327 139.07 10.2633 139.313 10.366C139.565 10.4593 139.91 10.5667 140.349 10.688C140.9 10.8373 141.348 10.9867 141.693 11.136C142.038 11.276 142.332 11.4907 142.575 11.78C142.827 12.0693 142.958 12.4473 142.967 12.914C142.967 13.334 142.85 13.712 142.617 14.048C142.384 14.384 142.052 14.65 141.623 14.846C141.203 15.0327 140.718 15.126 140.167 15.126ZM146.32 8.378V12.9C146.32 13.2733 146.399 13.5393 146.558 13.698C146.716 13.8473 146.992 13.922 147.383 13.922H148.322V15H147.174C146.464 15 145.932 14.8367 145.578 14.51C145.223 14.1833 145.046 13.6467 145.046 12.9V8.378H144.052V7.328H145.046V5.396H146.32V7.328H148.322V8.378H146.32ZM150.523 6.082C150.28 6.082 150.075 5.998 149.907 5.83C149.739 5.662 149.655 5.45667 149.655 5.214C149.655 4.97133 149.739 4.766 149.907 4.598C150.075 4.43 150.28 4.346 150.523 4.346C150.756 4.346 150.952 4.43 151.111 4.598C151.279 4.766 151.363 4.97133 151.363 5.214C151.363 5.45667 151.279 5.662 151.111 5.83C150.952 5.998 150.756 6.082 150.523 6.082ZM151.139 7.328V15H149.865V7.328H151.139ZM157.048 7.188C157.982 7.188 158.738 7.47267 159.316 8.042C159.895 8.602 160.184 9.414 160.184 10.478V15H158.924V10.66C158.924 9.89467 158.733 9.31133 158.35 8.91C157.968 8.49933 157.445 8.294 156.782 8.294C156.11 8.294 155.574 8.504 155.172 8.924C154.78 9.344 154.584 9.95533 154.584 10.758V15H153.31V7.328H154.584V8.42C154.836 8.028 155.177 7.72467 155.606 7.51C156.045 7.29533 156.526 7.188 157.048 7.188ZM165.43 7.202C166.092 7.202 166.671 7.34667 167.166 7.636C167.67 7.92533 168.043 8.28933 168.286 8.728V7.328H169.574V15.168C169.574 15.868 169.424 16.4887 169.126 17.03C168.827 17.5807 168.398 18.01 167.838 18.318C167.287 18.626 166.643 18.78 165.906 18.78C164.898 18.78 164.058 18.542 163.386 18.066C162.714 17.59 162.317 16.9413 162.196 16.12H163.456C163.596 16.5867 163.885 16.96 164.324 17.24C164.762 17.5293 165.29 17.674 165.906 17.674C166.606 17.674 167.175 17.4547 167.614 17.016C168.062 16.5773 168.286 15.9613 168.286 15.168V13.558C168.034 14.006 167.66 14.3793 167.166 14.678C166.671 14.9767 166.092 15.126 165.43 15.126C164.748 15.126 164.128 14.958 163.568 14.622C163.017 14.286 162.583 13.8147 162.266 13.208C161.948 12.6013 161.79 11.9107 161.79 11.136C161.79 10.352 161.948 9.666 162.266 9.078C162.583 8.48067 163.017 8.01867 163.568 7.692C164.128 7.36533 164.748 7.202 165.43 7.202ZM168.286 11.15C168.286 10.5713 168.169 10.0673 167.936 9.638C167.702 9.20867 167.385 8.882 166.984 8.658C166.592 8.42467 166.158 8.308 165.682 8.308C165.206 8.308 164.772 8.42 164.38 8.644C163.988 8.868 163.675 9.19467 163.442 9.624C163.208 10.0533 163.092 10.5573 163.092 11.136C163.092 11.724 163.208 12.2373 163.442 12.676C163.675 13.1053 163.988 13.4367 164.38 13.67C164.772 13.894 165.206 14.006 165.682 14.006C166.158 14.006 166.592 13.894 166.984 13.67C167.385 13.4367 167.702 13.1053 167.936 12.676C168.169 12.2373 168.286 11.7287 168.286 11.15ZM174.442 15.126C173.854 15.126 173.327 15.028 172.86 14.832C172.394 14.6267 172.025 14.3467 171.754 13.992C171.484 13.628 171.334 13.2127 171.306 12.746H172.622C172.66 13.1287 172.837 13.4413 173.154 13.684C173.481 13.9267 173.906 14.048 174.428 14.048C174.914 14.048 175.296 13.9407 175.576 13.726C175.856 13.5113 175.996 13.2407 175.996 12.914C175.996 12.578 175.847 12.3307 175.548 12.172C175.25 12.004 174.788 11.8407 174.162 11.682C173.593 11.5327 173.126 11.3833 172.762 11.234C172.408 11.0753 172.1 10.8467 171.838 10.548C171.586 10.24 171.46 9.83867 171.46 9.344C171.46 8.952 171.577 8.59267 171.81 8.266C172.044 7.93933 172.375 7.68267 172.804 7.496C173.234 7.3 173.724 7.202 174.274 7.202C175.124 7.202 175.81 7.41667 176.332 7.846C176.855 8.27533 177.135 8.86333 177.172 9.61H175.898C175.87 9.20867 175.707 8.88667 175.408 8.644C175.119 8.40133 174.727 8.28 174.232 8.28C173.775 8.28 173.411 8.378 173.14 8.574C172.87 8.77 172.734 9.02667 172.734 9.344C172.734 9.596 172.814 9.806 172.972 9.974C173.14 10.1327 173.346 10.2633 173.588 10.366C173.84 10.4593 174.186 10.5667 174.624 10.688C175.175 10.8373 175.623 10.9867 175.968 11.136C176.314 11.276 176.608 11.4907 176.85 11.78C177.102 12.0693 177.233 12.4473 177.242 12.914C177.242 13.334 177.126 13.712 176.892 14.048C176.659 14.384 176.328 14.65 175.898 14.846C175.478 15.0327 174.993 15.126 174.442 15.126Z" fill="#4991E6"/>
<path d="M224.46 11.4596C224.713 11.2058 224.713 10.7942 224.46 10.5404L220.323 6.40381C220.069 6.14997 219.658 6.14997 219.404 6.40381C219.15 6.65765 219.15 7.0692 219.404 7.32304L223.081 11L219.404 14.677C219.15 14.9308 219.15 15.3424 219.404 15.5962C219.658 15.85 220.069 15.85 220.323 15.5962L224.46 11.4596ZM186 11.65H224V10.35H186V11.65Z" fill="#4991E5"/>
</svg>
