<svg width="14" height="8" viewBox="0 0 14 8" fill="none" xmlns="http://www.w3.org/2000/svg">
<path d="M6.98365 6.54332C7.69597 5.78574 8.36661 5.07344 9.03633 4.36042C10.2941 3.02112 11.551 1.68109 12.8095 0.342157C12.8868 0.259933 12.9644 0.173907 13.057 0.1107C13.3105 -0.0626213 13.6567 -0.0160763 13.8527 0.206325C14.0665 0.44883 14.05 0.765951 13.7871 1.04866C13.0072 1.88701 12.2209 2.71975 11.4371 3.55484C10.1625 4.9128 8.88849 6.27129 7.61298 7.6287C7.14742 8.12422 6.85619 8.12476 6.38563 7.62436C4.35963 5.46971 2.33548 3.31343 0.310965 1.15787C0.259278 1.10281 0.205366 1.04939 0.158496 0.990525C-0.0684471 0.704736 -0.0499211 0.373488 0.202773 0.15326C0.452503 -0.0644329 0.804127 -0.0541097 1.05867 0.209222C1.60982 0.779353 2.14781 1.3618 2.69063 1.93972C4.05173 3.38913 5.41265 4.83872 6.77282 6.28922C6.83989 6.36058 6.89825 6.44009 6.98365 6.54332Z" fill="#414141"/>
</svg>
