<svg width="102" height="30" viewBox="0 0 102 30" fill="none" xmlns="http://www.w3.org/2000/svg">
<path d="M95.4254 4.2017V23.3276C95.4254 25.4677 97.0205 26.6602 98.7127 26.6602C100.278 26.6602 102 25.6459 102 23.3276V4.34659C102 2.38473 100.435 1.15894 98.7127 1.15894C96.9907 1.15894 95.4254 2.51079 95.4254 4.2017Z" fill="#F9AB00"/>
<path d="M86.8158 13.9097V23.3277C86.8158 25.4679 88.4109 26.6603 90.1031 26.6603C91.6685 26.6603 93.3904 25.646 93.3904 23.3277V14.0546C93.3904 12.0927 91.8251 10.8669 90.1031 10.8669C88.3812 10.8669 86.8158 12.2188 86.8158 13.9097Z" fill="#E37400"/>
<path d="M81.4935 26.6603C83.3091 26.6603 84.7809 25.298 84.7809 23.6175C84.7809 21.937 83.3091 20.5747 81.4935 20.5747C79.678 20.5747 78.2062 21.937 78.2062 23.6175C78.2062 25.298 79.678 26.6603 81.4935 26.6603Z" fill="#E37400"/>
<path d="M65.1277 6.50772C65.1062 6.36752 64.9763 6.2874 64.8681 6.2874C64.76 6.2874 62.6179 6.24736 62.6179 6.24736C62.6179 6.24736 60.822 4.64514 60.649 4.4649C60.4758 4.30467 60.1297 4.34473 59.9998 4.38478C59.9998 4.38478 59.6536 4.48493 59.0909 4.64514C59.0044 4.36476 58.853 4.02428 58.6583 3.66379C58.0308 2.54224 57.0788 1.94141 55.9536 1.94141C55.8671 1.94141 55.8022 1.94141 55.7156 1.96144C55.6723 1.92139 55.6507 1.88133 55.6074 1.8613C55.1098 1.38064 54.4823 1.14031 53.725 1.16034C52.2753 1.20039 50.8256 2.18175 49.6356 3.90412C48.8134 5.12581 48.1859 6.64791 47.9912 7.82953C46.3251 8.31021 45.1567 8.65067 45.1134 8.65067C44.2696 8.891 44.2479 8.91104 44.1397 9.65205C44.0965 10.2128 41.8895 26.0147 41.8895 26.0147L60.4109 28.9787L68.4383 27.1361C68.4166 27.1361 65.1494 6.64791 65.1277 6.50772ZM58.1606 4.92553C57.7279 5.04569 57.2519 5.18589 56.7326 5.34611C56.7326 4.66517 56.6244 3.70385 56.2998 2.90274C57.4033 3.06296 57.9442 4.22457 58.1606 4.92553ZM55.7589 5.60647C54.7852 5.88686 53.725 6.18727 52.6648 6.48769C52.9677 5.42622 53.5303 4.38478 54.2226 3.68382C54.4823 3.42346 54.8501 3.14307 55.2612 2.98284C55.694 3.76392 55.7805 4.86545 55.7589 5.60647ZM53.7683 2.06158C54.1145 2.06158 54.3958 2.12166 54.6338 2.28188C54.2443 2.46213 53.8548 2.74251 53.5086 3.10302C52.5782 4.02428 51.8642 5.44625 51.5829 6.82815C50.6958 7.08851 49.8303 7.32884 49.0514 7.54916C49.5707 5.36614 51.5396 2.12166 53.7683 2.06158Z" fill="#95BF47"/>
<path d="M64.8685 6.2874C64.7603 6.2874 62.6182 6.24734 62.6182 6.24734C62.6182 6.24734 60.8224 4.64512 60.6492 4.46488C60.5843 4.40479 60.4978 4.36475 60.4113 4.36475V28.9787L68.4385 27.1361C68.4385 27.1361 65.1714 6.6479 65.1498 6.5077C65.1064 6.36751 64.9767 6.2874 64.8685 6.2874Z" fill="#5E8E3E"/>
<path d="M55.954 10.1124L55.0235 13.3368C55.0235 13.3368 53.985 12.8962 52.7516 12.9763C50.9341 13.0765 50.9341 14.1379 50.9341 14.3983C51.0423 15.8403 55.1317 16.1607 55.3697 19.5453C55.5428 22.2091 53.8551 24.0315 51.3885 24.1717C48.4458 24.3119 46.8231 22.7098 46.8231 22.7098L47.4505 20.2464C47.4505 20.2464 49.095 21.3879 50.3932 21.3079C51.237 21.2678 51.5616 20.6068 51.5183 20.1662C51.3885 18.2836 48.0564 18.4038 47.84 15.2995C47.6669 12.6959 49.5061 10.0723 53.5739 9.83197C55.1534 9.73184 55.954 10.1124 55.954 10.1124Z" fill="white"/>
<mask id="mask0_23_3820" style="mask-type:luminance" maskUnits="userSpaceOnUse" x="0" y="0" width="33" height="30">
<path d="M32.4403 0H0.563446V29.5056H32.4403V0Z" fill="white"/>
</mask>
<g mask="url(#mask0_23_3820)">
<path d="M24.7699 17.4267C24.3216 17.2423 24.0228 16.9196 23.7737 16.5969H22.5285H22.4787H21.4328C20.6856 18.026 19.6397 19.2247 18.3945 19.824H18.8926C19.1416 20.1929 19.4903 20.5156 19.9883 20.7461C21.5822 21.4837 25.4174 21.9448 26.8618 24.4343H31.4441V22.7746C31.4441 18.6715 26.5629 18.2566 24.7699 17.4267ZM22.5285 16.5969C25.2679 16.5969 27.4595 13.1853 27.4595 10.0964C27.4595 7.79129 25.5668 5.85498 23.176 5.57837C23.1262 5.57837 23.1262 5.57837 23.0764 5.57837C23.0266 5.57837 22.9768 5.57837 22.927 5.57837C22.8274 5.57837 22.6779 5.57837 22.5783 5.57837H22.5285H22.4787C22.3791 5.57837 22.2297 5.57837 22.1301 5.57837C22.0803 5.57837 22.0305 5.57837 21.9806 5.57837C21.9308 5.57837 21.9308 5.57837 21.881 5.57837C20.586 5.76278 19.4405 6.36213 18.6436 7.28418C20.8351 8.0679 22.4787 10.0964 22.4787 12.4477C22.4787 13.7846 22.1301 15.2138 21.4826 16.4586C21.8312 16.5508 22.1301 16.5969 22.5285 16.5969C22.4787 16.5969 22.4787 16.5969 22.5285 16.5969Z" fill="#679AFC"/>
<path d="M9.0307 14.7521C13.1569 14.7521 16.5018 11.656 16.5018 7.83676C16.5018 4.0175 13.1569 0.921387 9.0307 0.921387C4.90453 0.921387 1.55959 4.0175 1.55959 7.83676C1.55959 11.656 4.90453 14.7521 9.0307 14.7521Z" fill="#679AFC"/>
<path d="M26.812 16.7352C26.3139 16.5969 25.8656 16.4586 25.5668 16.3203C27.2603 15.0755 28.4556 13.0009 28.4556 10.1887C28.4556 7.09978 25.7162 4.61025 22.3293 4.61025C20.7355 4.61025 19.2413 5.16348 18.0459 6.17773C17.7968 6.13161 17.498 6.08553 17.249 6.03944C16.4022 2.58174 13.0153 0 9.03071 0C4.3488 0 0.563446 3.50379 0.563446 7.83742C0.563446 12.1711 4.3488 15.6748 9.03071 15.6748C9.37938 15.6748 9.72801 15.6288 10.1265 15.5826C10.6744 17.1501 11.6207 18.6715 12.8659 19.7319C12.7663 19.7779 12.7165 19.8241 12.5671 19.8702C12.2184 20.0085 11.6705 20.1929 11.0728 20.3773C8.63225 21.161 4.54803 22.4058 4.54803 26.7394V28.5835C4.54803 29.0907 4.99632 29.5056 5.54418 29.5056H27.4595C28.0074 29.5056 28.4556 29.0907 28.4556 28.5835V26.7394C28.4556 26.3706 28.4058 26.0018 28.356 25.6791H31.4441C31.992 25.6791 32.4401 25.2642 32.4401 24.757V22.2675C32.4401 18.4871 28.9039 17.3806 26.812 16.7352ZM22.3293 6.45435C24.6205 6.45435 26.4633 8.11403 26.4633 10.1887C26.4633 12.4938 25.1683 14.9833 22.9768 15.5365C23.2757 14.5684 23.4749 13.5541 23.4749 12.4477C23.4749 10.1425 22.1799 8.11403 20.1876 7.00758C20.8351 6.63876 21.5822 6.45435 22.3293 6.45435ZM2.55575 7.83742C2.55575 4.51804 5.44457 1.8441 9.03071 1.8441C12.6169 1.8441 15.5057 4.51804 15.5057 7.83742C15.5057 11.1568 12.6169 13.8307 9.03071 13.8307C5.44457 13.8307 2.55575 11.1568 2.55575 7.83742ZM12.0192 15.1677C15.157 14.0613 17.4482 11.249 17.4482 7.92963C19.7393 8.34456 21.4328 10.2347 21.4328 12.4477C21.4328 15.8593 18.9424 19.363 16.452 19.363C14.5095 19.363 12.8161 17.3345 12.0192 15.1677ZM30.4479 23.835H27.6587C26.3638 21.8065 23.8733 21.0227 22.3293 20.5617C21.7814 20.3773 21.2336 20.6539 21.0841 21.161C20.9347 21.6221 21.1837 22.1753 21.7316 22.3136C24.2718 23.0974 26.5132 24.0194 26.5132 26.7394V27.6615H6.54033V26.7394C6.54033 23.9733 8.78169 23.0512 11.7203 22.1753C12.4176 21.9909 12.9655 21.8065 13.4138 21.576C13.8621 21.3915 14.2605 21.1149 14.5594 20.7922C15.157 21.0227 15.8045 21.161 16.5018 21.161C18.544 21.161 20.6857 19.7319 22.0803 17.4729C22.6282 17.4729 23.176 17.3806 23.7239 17.1962C24.0228 17.5189 24.3714 17.7495 24.7699 17.9339C25.1683 18.1183 25.6664 18.2566 26.2143 18.441C28.6051 19.1786 30.4978 19.9624 30.4978 22.2214V23.835H30.4479Z" fill="black"/>
<path d="M11.8698 5.76235L8.0844 8.85123L6.24151 7.14542C5.84305 6.7766 5.24536 6.7766 4.84689 7.14542C4.44843 7.51424 4.44843 8.06747 4.84689 8.43629L7.33727 10.7414C7.5365 10.9719 7.78555 11.0641 8.03458 11.0641C8.28363 11.0641 8.48286 10.9719 8.68209 10.8336L13.1648 7.14542C13.5632 6.82272 13.613 6.22337 13.2644 5.85455C12.9157 5.43964 12.2682 5.43964 11.8698 5.76235Z" fill="white"/>
</g>
</svg>
