<svg width="40" height="39" viewBox="0 0 40 39" fill="none" xmlns="http://www.w3.org/2000/svg">
<path d="M18.1477 1.54804C18.8241 -0.112799 21.1759 -0.1128 21.8523 1.54804L25.795 11.2288C26.0819 11.9333 26.7435 12.414 27.5022 12.4692L37.9275 13.2274C39.7161 13.3575 40.4428 15.5941 39.0723 16.7506L31.0837 23.4919C30.5023 23.9824 30.2496 24.7603 30.4316 25.4988L32.9321 35.6482C33.3611 37.3895 31.4585 38.7718 29.9351 37.8257L21.0551 32.3112C20.4089 31.9099 19.5911 31.9099 18.9449 32.3112L10.0649 37.8257C8.54151 38.7718 6.63891 37.3895 7.0679 35.6482L9.56843 25.4988C9.75039 24.7603 9.49765 23.9824 8.91634 23.4919L0.927699 16.7506C-0.442828 15.5941 0.283898 13.3575 2.07247 13.2274L12.4978 12.4692C13.2565 12.414 13.9181 11.9333 14.205 11.2288L18.1477 1.54804Z" fill="#D9D9D9"/>
</svg>
