<svg width="13" height="24" viewBox="0 0 13 24" fill="none" xmlns="http://www.w3.org/2000/svg">
<path d="M10.6329 12.028C9.40183 10.8069 8.24434 9.65723 7.08568 8.50915C4.90931 6.35304 2.73178 4.19821 0.556005 2.04083C0.422392 1.9084 0.282598 1.77533 0.179887 1.61653C-0.10176 1.18207 -0.026124 0.588501 0.335278 0.252493C0.729348 -0.114004 1.24467 -0.0857385 1.70408 0.364919C3.0664 1.70197 4.4196 3.04981 5.77662 4.39352C7.98329 6.57853 10.1909 8.76259 12.3966 10.9492C13.2019 11.7473 13.2027 12.2465 12.3896 13.0532C8.88827 16.5263 5.38432 19.9963 1.88154 23.4669C1.79207 23.5555 1.70525 23.6479 1.6096 23.7283C1.1452 24.1173 0.606919 24.0856 0.249048 23.6524C-0.104703 23.2243 -0.0879273 22.6215 0.339987 22.1851C1.26645 21.2403 2.21292 20.318 3.15204 19.3875C5.50734 17.0542 7.86293 14.7212 10.22 12.3894C10.3359 12.2745 10.4651 12.1744 10.6329 12.028Z" fill="black"/>
</svg>
