<svg width="126" height="126" viewBox="0 0 126 126" fill="none" xmlns="http://www.w3.org/2000/svg">
<path d="M102.142 110.682C99.6402 113.156 96.6334 114.939 93.6541 116.732C87.4595 120.462 80.6668 122.678 73.6767 124.29C71.5917 124.773 69.386 124.8 67.2352 124.894C64.9527 124.992 62.6592 124.8 60.3822 124.943C55.6361 125.245 51.0492 124.34 46.5281 123.166C37.826 120.906 30.0403 116.743 22.9349 111.275C17.3548 106.98 13.0312 101.588 9.3386 95.6373C5.33325 89.1871 2.6557 82.2872 1.0755 74.8223C-0.246815 68.5915 -0.0876978 62.3552 0.192128 56.1518C0.417087 51.1057 1.69551 46.0871 3.51163 41.3427C5.43201 36.3186 7.9285 31.5467 10.9682 27.0491C15.802 19.9024 21.9527 14.231 29.2556 9.68956C35.2417 5.96533 41.6283 3.16257 48.4594 1.59938C52.9256 0.5792 57.5345 0.0307139 62.1709 0.447563C62.1873 8.63098 62.1983 16.8199 62.2148 25.0033C60.064 25.2172 57.8967 25.3104 55.7733 25.6615C50.5005 26.5336 45.5459 28.4862 41.2388 31.5467C36.7451 34.7444 32.9208 38.688 30.0183 43.5531C26.6604 49.1806 25.0528 55.192 24.8059 61.6367C24.7181 63.88 24.8607 66.1123 25.2393 68.3776C25.8648 72.1183 26.9841 75.6395 28.4985 79.084C30.8249 84.3659 34.7589 88.3918 38.9892 92.0832C41.1894 94.0029 43.8231 95.588 46.5061 96.7562C49.7488 98.1604 53.1396 99.2244 56.7225 99.8278C60.1956 100.415 63.6907 100.568 67.0157 100.075C72.5683 99.2519 77.9673 97.5351 82.7079 94.2661C83.8821 93.4544 85.1166 92.7358 86.3292 91.9734C88.074 94.0138 89.8353 96.0432 91.5691 98.1C95.0916 102.285 98.6141 106.486 102.142 110.682Z" fill="#D8D8D8"/>
<path d="M102.142 110.682C98.6143 106.486 95.0917 102.279 91.5582 98.0889C89.8244 96.0376 88.0687 94.0082 86.3184 91.9623C87.3499 90.827 88.354 89.6697 89.4129 88.5617C96.1891 81.4808 99.6238 72.9737 99.8652 63.2436C100.019 56.9909 98.5923 51.0233 95.624 45.4452C90.2798 35.397 82.1045 28.9577 71.087 26.2427C68.201 25.5297 65.1723 25.3981 62.2094 24.9977C62.193 16.8142 62.182 8.62534 62.1655 0.441927C62.6758 0.288351 63.2025 -0.0352556 63.6963 0.00313845C70.5823 0.507746 77.4023 1.40178 83.8932 3.9303C90.7956 6.62337 97.1493 10.1885 102.867 14.9823C109.116 20.2258 113.988 26.5389 117.785 33.6308C121.039 39.7135 123.327 46.2296 124.106 53.1679C124.452 56.2285 125.033 59.3 125 62.3605C124.88 73.4345 122.284 83.9106 116.699 93.542C112.88 100.129 108.353 106.13 102.142 110.682Z" fill="#3251F4"/>
</svg>
