<svg width="55" height="43" viewBox="0 0 55 43" fill="none" xmlns="http://www.w3.org/2000/svg">
<path d="M49.5343 0C50.4563 1.35571 51.3419 2.66095 52.254 4.0032C51.6955 4.33961 51.1866 4.63901 50.6843 4.95186C47.3731 7.02411 44.4915 9.56059 42.4097 12.9482C40.8565 15.4746 39.9279 18.2297 39.5611 21.1127C40.5624 20.8537 41.5439 20.4634 42.5551 20.3592C48.2687 19.7738 53.675 23.1177 54.8084 29.1023C55.3702 32.0761 54.6564 34.7808 53.1231 37.3206C50.8033 41.1624 47.2806 42.3196 43.1168 41.9125C40.4963 41.6569 38.1666 40.5837 36.2929 38.6797C34.634 36.9943 33.3816 35.0129 32.5356 32.7724C31.5971 30.2797 31.3096 27.6793 31.3427 25.0318C31.4054 20.2145 32.8793 15.848 35.4899 11.865C38.996 6.5195 43.7976 2.75178 49.5343 0Z" fill="white"/>
<path d="M19.2215 0.0405273C20.1137 1.3525 21.0026 2.65775 21.918 4.00336C21.647 4.17156 21.4124 4.32295 21.1712 4.46424C17.9756 6.33464 15.1403 8.63228 12.9329 11.67C10.9336 14.4184 9.75386 17.51 9.24826 20.8774C9.23504 20.9716 9.24495 21.0658 9.24495 21.2373C9.41018 21.1667 9.54897 21.1129 9.68116 21.0523C10.9799 20.4468 12.3479 20.2315 13.7623 20.292C16.287 20.3963 18.6101 21.1061 20.6259 22.7007C24.7103 25.9302 25.8108 31.6221 23.329 36.3755C21.9312 39.0499 19.922 40.9809 16.9942 41.6436C12.3446 42.6932 8.31306 41.4956 5.14398 37.7749C2.70521 34.9155 1.43625 31.5548 1.10249 27.7905C0.484535 20.8269 2.63581 14.7784 6.92184 9.44301C10.1735 5.39944 14.2282 2.40545 18.8513 0.181817C18.9571 0.124628 19.0694 0.0943519 19.2215 0.0405273Z" fill="white"/>
</svg>
