<svg width="36" height="33" viewBox="0 0 36 33" fill="none" xmlns="http://www.w3.org/2000/svg">
<path d="M35.6756 1.33465C35.4889 1.61028 35.3221 1.90301 35.1119 2.15921C30.9956 7.17825 26.875 12.1936 22.7499 17.2052C22.5983 17.3893 22.543 17.5738 22.543 17.8078C22.5402 21.175 22.5305 24.5421 22.5227 27.9093C22.5227 27.9791 22.5185 28.0494 22.5231 28.1188C22.5637 28.7278 22.2941 29.1329 21.7456 29.3896C21.1049 29.6893 20.4776 30.0181 19.8439 30.333C18.2127 31.1437 16.5816 31.9544 14.9495 32.7637C14.8149 32.8307 14.6785 32.8983 14.5361 32.945C13.9069 33.1512 13.2607 32.7567 13.1575 32.1C13.1289 31.9174 13.1238 31.7292 13.1238 31.5433C13.122 26.976 13.1211 22.4088 13.1261 17.842C13.1266 17.5845 13.0653 17.3819 12.8975 17.1775C8.71848 12.1043 4.54634 7.02611 0.374665 1.94694C0.279257 1.83087 0.187997 1.70693 0.119783 1.57374C-0.188104 0.973935 0.121626 0.250652 0.77335 0.0670569C0.959557 0.0147993 1.16328 0.00924983 1.3587 0.00924983C12.3435 0.00647509 23.3283 0.00971229 34.3132 6.93532e-07C34.9709 -0.000461763 35.4263 0.230304 35.6756 0.844909C35.6756 1.00816 35.6756 1.1714 35.6756 1.33465ZM3.39269 2.18465C3.48579 2.30858 3.53834 2.38397 3.59641 2.45472C7.31179 6.97709 11.023 11.5027 14.7508 16.0149C15.1306 16.4746 15.2961 16.9467 15.2938 17.5401C15.2786 21.5958 15.286 25.6511 15.286 29.7068C15.286 29.8428 15.286 29.9788 15.286 30.1744C17.0093 29.3179 18.6764 28.4892 20.3596 27.6526C20.3596 27.5 20.3592 27.3617 20.3596 27.223C20.3675 23.9483 20.3799 20.6732 20.3776 17.3985C20.3772 16.9065 20.5187 16.5037 20.8321 16.1231C24.5843 11.5707 28.3278 7.01131 32.0732 2.45287C32.1363 2.37564 32.1893 2.28962 32.264 2.18418C22.6305 2.18465 13.0386 2.18465 3.39269 2.18465Z" fill="#062460"/>
</svg>
