<svg width="21" height="21" viewBox="0 0 21 21" fill="none" xmlns="http://www.w3.org/2000/svg">
<path d="M0.881303 0C0.398865 0.000402949 0.00813065 0.391249 0.00786649 0.873773C0.00786649 0.873773 0 19.65 0 19.6947C0 20.4105 0.576068 20.9869 1.29188 20.9869H19.7077C20.4235 20.9869 21 20.4105 21 19.6947C21 18.979 20.4235 18.4029 19.7077 18.4029H1.7554V0.873773C1.75515 0.391289 1.36374 0.000429813 0.881303 0Z" fill="white"/>
<path d="M6.93085 15.0086C6.93085 15.4549 6.75351 15.8831 6.43782 16.1988C6.12213 16.5146 5.69398 16.6919 5.24754 16.6919C4.80108 16.6919 4.37293 16.5146 4.05724 16.1988C3.74155 15.8831 3.56421 15.4549 3.56421 15.0086C3.56421 14.562 3.74155 14.1339 4.05724 13.8182C4.37293 13.5025 4.80108 13.3252 5.24754 13.3252C5.69398 13.3252 6.12213 13.5025 6.43782 13.8182C6.75351 14.1339 6.93085 14.562 6.93085 15.0086Z" fill="white"/>
<path d="M13.5205 15.0086C13.5205 15.4549 13.3431 15.8831 13.0274 16.1988C12.7117 16.5146 12.2836 16.6919 11.8371 16.6919C11.3907 16.6919 10.9625 16.5146 10.6468 16.1988C10.3312 15.8831 10.1538 15.4549 10.1538 15.0086C10.1538 14.562 10.3312 14.1339 10.6468 13.8182C10.9625 13.5025 11.3907 13.3252 11.8371 13.3252C12.2836 13.3252 12.7117 13.5025 13.0274 13.8182C13.3431 14.1339 13.5205 14.562 13.5205 15.0086Z" fill="white"/>
<path d="M7.09687 9.79392C7.09687 9.34747 6.91952 8.91932 6.60384 8.60363C6.28815 8.28795 5.85999 8.1106 5.41355 8.1106C4.9671 8.1106 4.53894 8.28795 4.22326 8.60363C3.90757 8.91932 3.73022 9.34747 3.73022 9.79392C3.73022 10.2404 3.90757 10.6685 4.22326 10.9842C4.53894 11.2999 4.9671 11.4772 5.41355 11.4772C5.85999 11.4772 6.28815 11.2999 6.60384 10.9842C6.91952 10.6685 7.09687 10.2404 7.09687 9.79392Z" fill="white"/>
<path d="M19.2446 4.63474C19.2446 5.08118 19.0672 5.50934 18.7516 5.82503C18.4359 6.14072 18.0077 6.31806 17.5612 6.31806C17.1148 6.31806 16.6867 6.14072 16.371 5.82503C16.0554 5.50934 15.8779 5.08118 15.8779 4.63474C15.8779 4.18829 16.0554 3.76014 16.371 3.44445C16.6867 3.12876 17.1148 2.95142 17.5612 2.95142C18.0077 2.95142 18.4359 3.12876 18.7516 3.44445C19.0672 3.76014 19.2446 4.18829 19.2446 4.63474Z" fill="white"/>
<path d="M13.5205 4.63474C13.5205 5.08118 13.3431 5.50934 13.0274 5.82503C12.7117 6.14072 12.2836 6.31806 11.8371 6.31806C11.3907 6.31806 10.9625 6.14072 10.6468 5.82503C10.3312 5.50934 10.1538 5.08118 10.1538 4.63474C10.1538 4.18829 10.3312 3.76014 10.6468 3.44445C10.9625 3.12876 11.3907 2.95142 11.8371 2.95142C12.2836 2.95142 12.7117 3.12876 13.0274 3.44445C13.3431 3.76014 13.5205 4.18829 13.5205 4.63474Z" fill="white"/>
<path d="M13.5205 9.79392C13.5205 9.34747 13.3431 8.91932 13.0274 8.60363C12.7117 8.28795 12.2836 8.1106 11.8371 8.1106C11.3907 8.1106 10.9625 8.28795 10.6468 8.60363C10.3312 8.91932 10.1538 9.34747 10.1538 9.79392C10.1538 10.2404 10.3312 10.6685 10.6468 10.9842C10.9625 11.2999 11.3907 11.4772 11.8371 11.4772C12.2836 11.4772 12.7117 11.2999 13.0274 10.9842C13.3431 10.6685 13.5205 10.2404 13.5205 9.79392Z" fill="white"/>
<path d="M19.2446 9.79392C19.2446 9.34747 19.0672 8.91932 18.7516 8.60363C18.4359 8.28795 18.0077 8.1106 17.5612 8.1106C17.1148 8.1106 16.6867 8.28795 16.371 8.60363C16.0554 8.91932 15.8779 9.34747 15.8779 9.79392C15.8779 10.2404 16.0554 10.6685 16.371 10.9842C16.6867 11.2999 17.1148 11.4772 17.5612 11.4772C18.0077 11.4772 18.4359 11.2999 18.7516 10.9842C19.0672 10.6685 19.2446 10.2404 19.2446 9.79392Z" fill="white"/>
</svg>
