<svg width="21" height="21" viewBox="0 0 21 21" fill="none" xmlns="http://www.w3.org/2000/svg">
<path d="M17.5349 0H3.47251C2.55153 0 1.66829 0.365852 1.01707 1.01707C0.365852 1.66829 0 2.55153 0 3.47251V17.5349C0.00198667 18.4547 0.368715 19.336 1.01972 19.9856C1.67072 20.6352 2.55284 21 3.47251 21H17.5349C18.4533 20.998 19.3336 20.6323 19.9829 19.9829C20.6323 19.3336 20.998 18.4533 21 17.5349V3.47251C21 2.55284 20.6352 1.67072 19.9856 1.01972C19.336 0.368715 18.4547 0.00198667 17.5349 0ZM19.5 17.5349C19.498 18.0556 19.2904 18.5543 18.9223 18.9223C18.5543 19.2904 18.0556 19.498 17.5349 19.5H3.47251C2.95065 19.5 2.45008 19.2932 2.08037 18.9249C1.71068 18.5567 1.50199 18.0568 1.5 17.5349V3.47251C1.5 2.94936 1.70781 2.44765 2.07773 2.07773C2.44765 1.70781 2.94936 1.5 3.47251 1.5H17.5349C18.0568 1.50199 18.5567 1.71068 18.9249 2.08037C19.2932 2.45008 19.5 2.95065 19.5 3.47251V17.5349Z" fill="#1F3349"/>
<path d="M18.0004 6.85495C17.9148 6.80535 17.8203 6.77319 17.7222 6.76029C17.6242 6.74741 17.5244 6.75405 17.429 6.77985C17.3335 6.80564 17.244 6.85008 17.1658 6.91059C17.0875 6.97111 17.0219 7.04651 16.973 7.13244L14.663 11.1299L13.253 9.98995C13.1708 9.92344 13.0756 9.87503 12.9735 9.84788C12.8714 9.82075 12.7648 9.81548 12.6605 9.83244C12.5559 9.85059 12.4563 9.89072 12.3684 9.95019C12.2805 10.0097 12.2062 10.0871 12.1505 10.1774L9.96797 13.6499L7.89046 11.7974C7.81617 11.7315 7.72951 11.6809 7.63553 11.6488C7.54154 11.6166 7.4421 11.6034 7.34297 11.6099C7.24414 11.6162 7.14754 11.6419 7.05871 11.6857C6.9699 11.7295 6.89062 11.7904 6.82546 11.8649L2.60297 16.755C2.53846 16.8303 2.48942 16.9177 2.45865 17.0119C2.42787 17.1062 2.41598 17.2057 2.42365 17.3046C2.43131 17.4034 2.45837 17.4998 2.5033 17.5883C2.54822 17.6767 2.61011 17.7554 2.68546 17.8199C2.76081 17.8845 2.84813 17.9335 2.94242 17.9643C3.03673 17.995 3.13615 18.007 3.23505 17.9993C3.43478 17.9838 3.62018 17.8897 3.75046 17.7374L7.50046 13.425L9.67546 15.3599C9.75711 15.4321 9.85349 15.4854 9.95787 15.5166C10.0623 15.5477 10.1722 15.5555 10.2799 15.5398C10.3877 15.5242 10.4908 15.4851 10.582 15.4257C10.6732 15.3661 10.7503 15.2874 10.808 15.195L13.013 11.6774L14.4455 12.8324C14.5298 12.8999 14.6276 12.9483 14.7324 12.9744C14.8371 13.0005 14.9463 13.0037 15.0524 12.9838C15.1584 12.9639 15.259 12.9213 15.3471 12.8589C15.4352 12.7965 15.5088 12.7159 15.563 12.6224L18.3155 7.86744C18.4079 7.69139 18.4267 7.48584 18.3676 7.29597C18.3086 7.10611 18.1764 6.94748 18.0004 6.85495Z" fill="#1F3349"/>
</svg>
