<svg width="17" height="29" viewBox="0 0 17 29" fill="none" xmlns="http://www.w3.org/2000/svg">
<path d="M13.7852 14.3154C12.2975 12.8621 10.8987 11.4938 9.49846 10.1273C6.86836 7.56121 4.23685 4.99659 1.60747 2.42894C1.446 2.27132 1.27706 2.11295 1.15294 1.92395C0.812572 1.40687 0.903976 0.700417 1.34072 0.30051C1.81695 -0.135684 2.43971 -0.102043 2.99489 0.434316C4.64123 2.02563 6.27655 3.6298 7.91649 5.22905C10.5832 7.82958 13.251 10.429 15.9167 13.0314C16.8897 13.9813 16.8908 14.5755 15.9081 15.5355C11.6769 19.6692 7.4424 23.799 3.20935 27.9297C3.10123 28.0351 2.99631 28.1451 2.88072 28.2407C2.3195 28.7038 1.669 28.666 1.23652 28.1504C0.809016 27.6409 0.829288 26.9235 1.34642 26.4041C2.46603 25.2796 3.60982 24.1819 4.74473 23.0744C7.59106 20.2974 10.4377 17.5207 13.2862 14.7456C13.4263 14.6087 13.5825 14.4897 13.7852 14.3154Z" fill="#A5A6F6"/>
</svg>
